<svg version="1.1" id="Layer_1" xmlns="http://www.w3.org/2000/svg" xmlns:xlink="http://www.w3.org/1999/xlink" x="0px" y="0px"
	 width="100%" viewBox="0 0 1570 1570" enable-background="new 0 0 1570 1570" xml:space="preserve">
<path fill="#F6FAF6" opacity="1.000000" stroke="none" 
	d="
M1.000000,524.000000 
	C1.000000,349.333374 1.000000,175.166733 1.000000,1.000070 
	C524.333191,1.000047 1047.666382,1.000047 1570.999756,1.000023 
	C1570.999756,524.333130 1570.999756,1047.666260 1570.999878,1570.999512 
	C1047.666992,1570.999756 524.333984,1570.999756 1.000468,1570.999878 
	C1.000000,1222.166626 1.000000,873.333313 1.000000,524.000000 
M1230.023071,7.013498 
	C936.198914,7.009374 642.374695,7.005210 348.550537,7.003111 
	C347.717468,7.003105 346.884430,7.033256 345.155029,7.023964 
	C334.450256,7.990602 323.737549,8.877539 313.042358,9.940446 
	C290.691437,12.161719 268.962219,17.344105 247.653030,24.269798 
	C225.468109,31.480108 204.295364,41.013214 183.948257,52.460060 
	C158.788818,66.614220 135.636414,83.536674 115.083801,103.709946 
	C102.917892,115.651299 91.660782,128.613510 80.839813,141.809433 
	C61.119743,165.857605 46.088558,192.821747 34.046070,221.431274 
	C24.040804,245.200928 16.376734,269.749451 12.534183,295.274902 
	C10.051312,311.768158 8.834119,328.451996 7.013503,345.976593 
	C7.009376,640.467468 7.005205,934.958313 7.003112,1229.449219 
	C7.003106,1230.282227 7.033259,1231.115356 7.024372,1232.822876 
	C7.368098,1238.610352 7.406054,1244.435425 8.110108,1250.178711 
	C10.728068,1271.534424 13.992508,1292.744995 19.832731,1313.552612 
	C29.153955,1346.762207 42.958874,1377.906982 61.418148,1406.977051 
	C80.496613,1437.022217 103.559959,1463.594727 130.880127,1486.528320 
	C149.905106,1502.498413 170.258240,1516.383423 192.143539,1528.058350 
	C220.292480,1543.074463 249.966949,1553.991699 281.120667,1560.860962 
	C301.852692,1565.432251 322.877716,1567.779175 344.976624,1568.986206 
	C639.800842,1568.990601 934.625000,1568.994873 1229.449219,1568.997192 
	C1230.282227,1568.997192 1231.115356,1568.966919 1232.822876,1568.975708 
	C1238.610352,1568.631958 1244.435303,1568.593872 1250.178589,1567.889771 
	C1271.534424,1565.271606 1292.744873,1562.007324 1313.552490,1556.166992 
	C1346.762207,1546.845825 1377.906860,1533.040405 1406.977539,1514.581787 
	C1437.023193,1495.503906 1463.593750,1472.438599 1486.528198,1445.119629 
	C1502.499023,1426.095215 1516.383057,1405.741455 1528.058228,1383.856201 
	C1543.074829,1355.707275 1553.991211,1326.032593 1560.860840,1294.878906 
	C1565.432251,1274.146851 1567.779297,1253.121826 1568.986328,1231.023071 
	C1568.990601,936.198914 1568.994995,641.374695 1568.997192,346.550537 
	C1568.997314,345.717468 1568.966919,344.884430 1568.975586,343.177032 
	C1568.333618,335.929474 1568.049194,328.628448 1566.976196,321.445282 
	C1564.633057,305.758575 1562.625122,289.966400 1559.154785,274.515015 
	C1552.014648,242.723434 1539.785400,212.813354 1523.787231,184.405960 
	C1508.627319,157.486603 1490.363281,132.891357 1468.466187,111.161209 
	C1457.656372,100.433899 1446.037598,90.450531 1434.217407,80.827454 
	C1410.096313,61.189751 1383.185791,46.091053 1354.574219,34.048222 
	C1330.803955,24.043196 1306.255737,16.374378 1280.728271,12.535046 
	C1264.233276,10.054196 1247.548828,8.834555 1230.023071,7.013498 
z"/>
<path fill="#D6EBDA" opacity="1.000000" stroke="none" 
	d="
M7.049736,345.050415 
	C8.834119,328.451996 10.051312,311.768158 12.534183,295.274902 
	C16.376734,269.749451 24.040804,245.200928 34.046070,221.431274 
	C46.088558,192.821747 61.119743,165.857605 80.839813,141.809433 
	C91.660782,128.613510 102.917892,115.651299 115.083801,103.709946 
	C135.636414,83.536674 158.788818,66.614220 183.948257,52.460060 
	C204.295364,41.013214 225.468109,31.480108 247.653030,24.269798 
	C268.962219,17.344105 290.691437,12.161719 313.042358,9.940446 
	C323.737549,8.877539 334.450256,7.990602 345.897369,7.322000 
	C348.119659,7.746634 349.599640,7.984079 351.079590,7.984161 
	C642.633362,8.000391 934.187073,8.001480 1225.740845,7.960621 
	C1227.476929,7.960378 1229.213135,7.366439 1230.949219,7.049734 
	C1247.548828,8.834555 1264.233276,10.054196 1280.728271,12.535046 
	C1306.255737,16.374378 1330.803955,24.043196 1354.574219,34.048222 
	C1383.185791,46.091053 1410.096313,61.189751 1434.217407,80.827454 
	C1446.037598,90.450531 1457.656372,100.433899 1468.466187,111.161209 
	C1490.363281,132.891357 1508.627319,157.486603 1523.787231,184.405960 
	C1539.785400,212.813354 1552.014648,242.723434 1559.154785,274.515015 
	C1562.625122,289.966400 1564.633057,305.758575 1566.976196,321.445282 
	C1568.049194,328.628448 1568.333618,335.929474 1568.677734,343.908386 
	C1568.253174,346.119690 1568.015747,347.599670 1568.015625,349.079651 
	C1567.999390,641.633362 1567.998413,934.187134 1568.039307,1226.740845 
	C1568.039551,1228.476929 1568.633545,1230.213013 1568.950317,1231.949097 
	C1567.779297,1253.121826 1565.432251,1274.146851 1560.860840,1294.878906 
	C1553.991211,1326.032593 1543.074829,1355.707275 1528.058228,1383.856201 
	C1516.383057,1405.741455 1502.499023,1426.095215 1486.528198,1445.119629 
	C1463.593750,1472.438599 1437.023193,1495.503906 1406.977539,1514.581787 
	C1377.906860,1533.040405 1346.762207,1546.845825 1313.552490,1556.166992 
	C1292.744873,1562.007324 1271.534424,1565.271606 1250.178589,1567.889771 
	C1244.435303,1568.593872 1238.610352,1568.631958 1232.091553,1568.677734 
	C1229.880371,1568.253174 1228.400391,1568.015747 1226.920410,1568.015625 
	C934.366516,1567.999512 641.812622,1567.998291 349.258759,1568.039185 
	C347.522614,1568.039429 345.786530,1568.633545 344.050415,1568.950317 
	C322.877716,1567.779175 301.852692,1565.432251 281.120667,1560.860962 
	C249.966949,1553.991699 220.292480,1543.074463 192.143539,1528.058350 
	C170.258240,1516.383423 149.905106,1502.498413 130.880127,1486.528320 
	C103.559959,1463.594727 80.496613,1437.022217 61.418148,1406.977051 
	C42.958874,1377.906982 29.153955,1346.762207 19.832731,1313.552612 
	C13.992508,1292.744995 10.728068,1271.534424 8.110108,1250.178711 
	C7.406054,1244.435425 7.368098,1238.610352 7.322244,1232.091553 
	C7.746686,1229.880249 7.984083,1228.400269 7.984165,1226.920288 
	C8.000386,934.699829 8.001463,642.479370 7.960613,350.258942 
	C7.960371,348.522736 7.366433,346.786591 7.049736,345.050415 
M1035.025024,627.414246 
	C1035.975220,627.703247 1036.916504,628.026917 1037.877075,628.276306 
	C1063.852539,635.021545 1086.834595,647.134460 1106.118530,666.019653 
	C1118.470215,678.115967 1126.725464,692.858398 1134.898315,707.883606 
	C1139.800537,716.896301 1145.859009,725.920898 1153.391968,732.736023 
	C1172.533813,750.053894 1195.177734,759.067932 1221.612427,756.360718 
	C1255.071533,752.934204 1279.196289,735.480652 1294.032349,706.016968 
	C1306.505859,681.244995 1305.931885,655.502258 1294.356079,630.224915 
	C1274.255493,586.333191 1245.298584,549.306763 1207.863037,518.838501 
	C1175.694580,492.656982 1139.893311,473.450195 1100.219849,461.196136 
	C1059.702637,448.681488 1018.550598,443.459503 976.333679,448.834015 
	C953.650940,451.721710 931.774353,457.781525 911.563171,468.589569 
	C891.503845,479.316406 873.396301,492.915314 857.210754,508.949738 
	C851.904541,514.206482 846.922363,519.793091 841.855469,525.287354 
	C840.028870,527.267944 838.396484,527.710510 836.520691,525.395752 
	C826.041504,512.464539 813.897766,501.235077 800.853943,490.976898 
	C776.649841,471.941803 749.400574,458.671936 720.026245,449.970367 
	C681.595703,438.585968 642.244751,435.269104 602.256165,437.545349 
	C577.296448,438.966125 552.745239,442.486023 528.505371,448.477661 
	C502.871948,454.813751 478.286133,463.908234 454.894470,476.185181 
	C452.350067,477.520538 450.173309,478.600281 447.193207,476.372803 
	C411.845398,449.951569 365.427948,453.491577 333.519440,483.728058 
	C314.410156,501.836029 305.760223,524.668762 305.770844,551.021484 
	C305.843231,730.837402 305.801147,910.653320 305.847595,1090.469238 
	C305.848938,1095.606689 306.081604,1100.791748 306.791656,1105.872925 
	C310.111664,1129.630737 321.585663,1149.057251 340.226868,1163.693970 
	C358.261597,1177.854492 379.071686,1184.304321 402.327454,1182.417969 
	C421.364288,1180.873901 438.076660,1173.655396 452.221100,1161.426514 
	C473.837341,1142.737915 484.129303,1118.612305 484.100281,1089.873779 
	C483.978333,969.052185 484.027405,848.230530 484.100311,727.408936 
	C484.104797,719.941895 484.400665,712.418213 485.335510,705.018799 
	C488.465607,680.244568 499.652771,660.041565 519.787659,644.820129 
	C536.224976,632.393921 554.860901,625.121033 574.617249,620.390564 
	C599.445007,614.445679 624.674316,613.349060 649.904236,616.528564 
	C659.972046,617.797363 670.043396,620.726135 679.556946,624.356812 
	C700.059387,632.181396 709.387512,649.385620 714.801453,669.345459 
	C719.850525,687.960083 720.784180,707.019104 720.785706,726.165894 
	C720.795593,846.820862 720.777344,967.475891 720.830811,1088.130859 
	C720.833435,1094.101929 720.975464,1100.135620 721.810120,1106.032837 
	C725.168945,1129.764282 736.638977,1149.144287 755.324402,1163.811157 
	C773.591797,1178.149902 794.644470,1184.725708 818.006287,1182.290039 
	C846.826355,1179.285278 869.020020,1165.210449 884.731018,1141.023682 
	C887.123901,1137.340088 888.800964,1136.639038 892.372925,1139.250732 
	C904.852356,1148.374756 918.509399,1155.274902 933.095398,1160.417725 
	C970.066101,1173.453369 1007.958923,1175.394653 1046.532959,1170.396973 
	C1087.268066,1165.119385 1125.412109,1152.149780 1161.247437,1132.264771 
	C1198.596802,1111.539917 1230.666992,1084.517456 1257.011108,1050.854370 
	C1272.945190,1030.493408 1286.445557,1008.607117 1296.355469,984.667297 
	C1305.120361,963.494141 1305.287231,941.924316 1297.111816,920.641846 
	C1287.544800,895.736755 1269.914673,878.336548 1245.029541,868.745972 
	C1221.198608,859.561829 1197.496094,860.693359 1174.614502,871.998474 
	C1155.584473,881.400818 1141.858887,896.209412 1132.792236,915.407104 
	C1123.010376,936.119141 1109.408203,953.931519 1090.638062,967.167786 
	C1064.681030,985.472168 1035.948120,995.620667 1003.735291,994.769836 
	C996.096375,994.568054 990.079590,991.772949 984.601929,986.735352 
	C970.511841,973.777466 961.476990,957.575500 954.257751,940.180237 
	C940.626770,907.335632 934.031738,872.833435 932.639954,837.568176 
	C931.684204,813.353455 932.682983,788.979614 934.238342,764.768799 
	C936.128296,735.349121 942.937561,706.843811 954.283630,679.515747 
	C961.585632,661.927917 970.874634,645.714417 985.146912,632.692871 
	C990.128418,628.147888 995.535217,624.944275 1002.390381,625.281616 
	C1012.993835,625.803467 1023.582520,626.624146 1035.025024,627.414246 
z"/>
<path fill="#BBEEE1" opacity="1.000000" stroke="none" 
	d="
M1568.968262,1231.486084 
	C1568.633545,1230.213013 1568.039551,1228.476929 1568.039307,1226.740845 
	C1567.998413,934.187134 1567.999390,641.633362 1568.015625,349.079651 
	C1568.015747,347.599670 1568.253174,346.119690 1568.665283,344.345520 
	C1568.966919,344.884430 1568.997314,345.717468 1568.997192,346.550537 
	C1568.994995,641.374695 1568.990601,936.198914 1568.968262,1231.486084 
z"/>
<path fill="#BBEEE1" opacity="1.000000" stroke="none" 
	d="
M344.513519,1568.968262 
	C345.786530,1568.633545 347.522614,1568.039429 349.258759,1568.039185 
	C641.812622,1567.998291 934.366516,1567.999512 1226.920410,1568.015625 
	C1228.400391,1568.015747 1229.880371,1568.253174 1231.654297,1568.665283 
	C1231.115356,1568.966919 1230.282227,1568.997192 1229.449219,1568.997192 
	C934.625000,1568.994873 639.800842,1568.990601 344.513519,1568.968262 
z"/>
<path fill="#BBEEE1" opacity="1.000000" stroke="none" 
	d="
M7.031619,345.513489 
	C7.366433,346.786591 7.960371,348.522736 7.960613,350.258942 
	C8.001463,642.479370 8.000386,934.699829 7.984165,1226.920288 
	C7.984083,1228.400269 7.746686,1229.880249 7.334722,1231.654297 
	C7.033259,1231.115356 7.003106,1230.282227 7.003112,1229.449219 
	C7.005205,934.958313 7.009376,640.467468 7.031619,345.513489 
z"/>
<path fill="#BBEEE1" opacity="1.000000" stroke="none" 
	d="
M1230.486084,7.031618 
	C1229.213135,7.366439 1227.476929,7.960378 1225.740845,7.960621 
	C934.187073,8.001480 642.633362,8.000391 351.079590,7.984161 
	C349.599640,7.984079 348.119659,7.746634 346.345520,7.334679 
	C346.884430,7.033256 347.717468,7.003105 348.550537,7.003111 
	C642.374695,7.005210 936.198914,7.009374 1230.486084,7.031618 
z"/>
<path fill="#1A535C" opacity="1.000000" stroke="none" 
	d="
M1034.601318,627.366150 
	C1023.582520,626.624146 1012.993835,625.803467 1002.390381,625.281616 
	C995.535217,624.944275 990.128418,628.147888 985.146912,632.692871 
	C970.874634,645.714417 961.585632,661.927917 954.283630,679.515747 
	C942.937561,706.843811 936.128296,735.349121 934.238342,764.768799 
	C932.682983,788.979614 931.684204,813.353455 932.639954,837.568176 
	C934.031738,872.833435 940.626770,907.335632 954.257751,940.180237 
	C961.476990,957.575500 970.511841,973.777466 984.601929,986.735352 
	C990.079590,991.772949 996.096375,994.568054 1003.735291,994.769836 
	C1035.948120,995.620667 1064.681030,985.472168 1090.638062,967.167786 
	C1109.408203,953.931519 1123.010376,936.119141 1132.792236,915.407104 
	C1141.858887,896.209412 1155.584473,881.400818 1174.614502,871.998474 
	C1197.496094,860.693359 1221.198608,859.561829 1245.029541,868.745972 
	C1269.914673,878.336548 1287.544800,895.736755 1297.111816,920.641846 
	C1305.287231,941.924316 1305.120361,963.494141 1296.355469,984.667297 
	C1286.445557,1008.607117 1272.945190,1030.493408 1257.011108,1050.854370 
	C1230.666992,1084.517456 1198.596802,1111.539917 1161.247437,1132.264771 
	C1125.412109,1152.149780 1087.268066,1165.119385 1046.532959,1170.396973 
	C1007.958923,1175.394653 970.066101,1173.453369 933.095398,1160.417725 
	C918.509399,1155.274902 904.852356,1148.374756 892.372925,1139.250732 
	C888.800964,1136.639038 887.123901,1137.340088 884.731018,1141.023682 
	C869.020020,1165.210449 846.826355,1179.285278 818.006287,1182.290039 
	C794.644470,1184.725708 773.591797,1178.149902 755.324402,1163.811157 
	C736.638977,1149.144287 725.168945,1129.764282 721.810120,1106.032837 
	C720.975464,1100.135620 720.833435,1094.101929 720.830811,1088.130859 
	C720.777344,967.475891 720.795593,846.820862 720.785706,726.165894 
	C720.784180,707.019104 719.850525,687.960083 714.801453,669.345459 
	C709.387512,649.385620 700.059387,632.181396 679.556946,624.356812 
	C670.043396,620.726135 659.972046,617.797363 649.904236,616.528564 
	C624.674316,613.349060 599.445007,614.445679 574.617249,620.390564 
	C554.860901,625.121033 536.224976,632.393921 519.787659,644.820129 
	C499.652771,660.041565 488.465607,680.244568 485.335510,705.018799 
	C484.400665,712.418213 484.104797,719.941895 484.100311,727.408936 
	C484.027405,848.230530 483.978333,969.052185 484.100281,1089.873779 
	C484.129303,1118.612305 473.837341,1142.737915 452.221100,1161.426514 
	C438.076660,1173.655396 421.364288,1180.873901 402.327454,1182.417969 
	C379.071686,1184.304321 358.261597,1177.854492 340.226868,1163.693970 
	C321.585663,1149.057251 310.111664,1129.630737 306.791656,1105.872925 
	C306.081604,1100.791748 305.848938,1095.606689 305.847595,1090.469238 
	C305.801147,910.653320 305.843231,730.837402 305.770844,551.021484 
	C305.760223,524.668762 314.410156,501.836029 333.519440,483.728058 
	C365.427948,453.491577 411.845398,449.951569 447.193207,476.372803 
	C450.173309,478.600281 452.350067,477.520538 454.894470,476.185181 
	C478.286133,463.908234 502.871948,454.813751 528.505371,448.477661 
	C552.745239,442.486023 577.296448,438.966125 602.256165,437.545349 
	C642.244751,435.269104 681.595703,438.585968 720.026245,449.970367 
	C749.400574,458.671936 776.649841,471.941803 800.853943,490.976898 
	C813.897766,501.235077 826.041504,512.464539 836.520691,525.395752 
	C838.396484,527.710510 840.028870,527.267944 841.855469,525.287354 
	C846.922363,519.793091 851.904541,514.206482 857.210754,508.949738 
	C873.396301,492.915314 891.503845,479.316406 911.563171,468.589569 
	C931.774353,457.781525 953.650940,451.721710 976.333679,448.834015 
	C1018.550598,443.459503 1059.702637,448.681488 1100.219849,461.196136 
	C1139.893311,473.450195 1175.694580,492.656982 1207.863037,518.838501 
	C1245.298584,549.306763 1274.255493,586.333191 1294.356079,630.224915 
	C1305.931885,655.502258 1306.505859,681.244995 1294.032349,706.016968 
	C1279.196289,735.480652 1255.071533,752.934204 1221.612427,756.360718 
	C1195.177734,759.067932 1172.533813,750.053894 1153.391968,732.736023 
	C1145.859009,725.920898 1139.800537,716.896301 1134.898315,707.883606 
	C1126.725464,692.858398 1118.470215,678.115967 1106.118530,666.019653 
	C1086.834595,647.134460 1063.852539,635.021545 1037.877075,628.276306 
	C1036.916504,628.026917 1035.975220,627.703247 1034.601318,627.366150 
z"/>
</svg>